:FULLY-SPECIFIED
:FORCE-ALL-JOINTS-BE-3DOF
:DEGREES
612
root -4.24847 15.5496 -40.7987 -3.03585 -75.5543 10.1604
lfemur -8.3629 13.2407 -16.549
ltibia 44.0655 -0 0
lfoot -22.0826 29.9137 0.000884757
ltoes -24.0752 0 0
rfemur -41.3129 -32.3246 18.3932
rtibia 79.0256 -0 0
rfoot -15.2351 -19.4083 0.0474347
rtoes -3.30597 0 0
lowerback 10.4173 4.96014 -6.64641
upperback -2.82101 5.5752 -1.3607
thorax -9.39585 3.00849 1.21361
lowerneck 1.26604 -10.7109 -11.867
upperneck -0.728811 -14.5345 11.6194
head 1.30697 -7.29743 5.03481
lclavicle 0 0 0
lhumerus -72.1551 -23.9856 105.229
lradius 102.26 -0 0
lwrist 56.0709 0 0
lhand 7.82371 56.903 5.69621e-06
lfingers 0 0 0
lthumb 33.0594 83.8906 5.37267e-06
rclavicle 0 0 0
rhumerus 27.0073 17.2854 -46.8392
rradius 98.9766 -0 0
rwrist -29.3959 0 0
rhand -25.1676 -35.2186 -0.00533272
rfingers 0 0 0
rthumb 1.34959 -65.1868 -0.00426241
613
root -4.22393 15.5579 -40.7878 -2.89221 -75.6226 10.0564
lfemur -8.48117 13.2723 -16.6431
ltibia 44.0854 -0 0
lfoot -22.0677 29.9424 0.000510376
ltoes -24.1135 0 0
rfemur -41.1746 -32.4414 18.5114
rtibia 79.163 -0 0
rfoot -15.3307 -19.6441 0.0273584
rtoes -3.25662 0 0
lowerback 10.3725 4.97084 -6.66555
upperback -2.84594 5.58814 -1.37829
thorax -9.39863 3.01597 1.20443
lowerneck 1.24576 -10.7035 -11.866
upperneck -0.696212 -14.5249 11.6371
head 1.32006 -7.29224 5.03782
lclavicle 0 0 0
lhumerus -72.1649 -24.0215 105.241
lradius 102.253 -0 0
lwrist 56.0237 0 0
lhand 7.82342 56.8935 3.28589e-06
lfingers 0 0 0
lthumb 33.0592 83.8812 3.09925e-06
rclavicle 0 0 0
rhumerus 27.1322 17.3028 -46.8438
rradius 99.6379 -0 0
rwrist -29.7508 0 0
rhand -25.2847 -35.1967 -0.0030761
rfingers 0 0 0
rthumb 1.23652 -65.1687 -0.00245872
614
root -4.20599 15.5639 -40.7798 -2.78644 -75.6726 9.9796
lfemur -8.56769 13.2952 -16.7119
ltibia 44.1 -0 0
lfoot -22.0568 29.9633 0.000231944
ltoes -24.1414 0 0
rfemur -41.0736 -32.527 18.5978
rtibia 79.2635 -0 0
rfoot -15.4004 -19.8164 0.0124317
rtoes -3.22055 0 0
lowerback 10.3397 4.97865 -6.67956
upperback -2.86417 5.5976 -1.39114
thorax -9.40067 3.02144 1.19772
lowerneck 1.23094 -10.6981 -11.8653
upperneck -0.672377 -14.5179 11.65
head 1.32963 -7.28846 5.04002
lclavicle 0 0 0
lhumerus -72.1721 -24.0477 105.249
lradius 102.248 -0 0
lwrist 55.9891 0 0
lhand 7.8232 56.8866 1.4933e-06
lfingers 0 0 0
lthumb 33.059 83.8744 1.40848e-06
rclavicle 0 0 0
rhumerus 27.2236 17.3155 -46.8472
rradius 100.121 -0 0
rwrist -30.0102 0 0
rhand -25.3704 -35.1807 -0.00139792
rfingers 0 0 0
rthumb 1.15385 -65.1554 -0.00111735
615
root -4.19498 15.5675 -40.7749 -2.72123 -75.7032 9.93218
lfemur -8.6208 13.3092 -16.7541
ltibia 44.109 -0 0
lfoot -22.0502 29.9762 5.91151e-05
ltoes -24.1586 0 0
rfemur -41.0116 -32.5795 18.6507
rtibia 79.3251 -0 0
rfoot -15.4432 -19.9221 0.00316821
rtoes -3.19841 0 0
lowerback 10.3196 4.98344 -6.68816
upperback -2.87536 5.60341 -1.39904
thorax -9.40192 3.02479 1.1936
lowerneck 1.22184 -10.6947 -11.8648
upperneck -0.657751 -14.5136 11.658
head 1.3355 -7.28613 5.04137
lclavicle 0 0 0
lhumerus -72.1765 -24.0638 105.254
lradius 102.245 -0 0
lwrist 55.9679 0 0
lhand 7.82307 56.8823 3.80595e-07
lfingers 0 0 0
lthumb 33.0588 83.8701 3.58977e-07
rclavicle 0 0 0
rhumerus 27.2796 17.3233 -46.8492
rradius 100.418 -0 0
rwrist -30.1695 0 0
rhand -25.4229 -35.1708 -0.00035628
rfingers 0 0 0
rthumb 1.10312 -65.1473 -0.000284774
616
root -4.19404 15.6951 -40.3571 -2.699 -75.7136 9.916
lfemur -8.63886 13.314 -16.7685
ltibia 44.112 0 0
lfoot -22.0479 29.9806 0
ltoes -24.1644 0 0
rfemur -40.9905 -32.5974 18.6687
rtibia 79.3461 0 0
rfoot -15.4578 -19.9581 0
rtoes -3.19088 0 0
lowerback 10.3128 4.98507 -6.69108
upperback -2.87916 5.60538 -1.40172
thorax -9.40235 3.02593 1.1922
lowerneck 1.21875 -10.6936 -11.8647
upperneck -0.652777 -14.5121 11.6607
head 1.3375 -7.28534 5.04183
lclavicle -6.31141e-14 1.98785e-15 0
lhumerus -72.178 -24.0693 105.256
lradius 102.244 0 0
lwrist 55.9607 0 0
lhand 7.82303 56.8809 0
lfingers 7.12502 0 0
lthumb 33.0588 83.8687 0
rclavicle -6.31141e-14 1.98785e-15 0
rhumerus 27.2987 17.326 -46.8499
rradius 100.519 0 0
rwrist -30.2236 0 0
rhand -25.4408 -35.1675 0
rfingers 7.12502 0 0
rthumb 1.08587 -65.1445 0
617
root -4.19653 15.7039 -40.3273 -2.1134 -75.9763 9.26937
lfemur -9.42061 13.2897 -16.7748
ltibia 44.5623 -0 0
lfoot -21.8532 29.5508 -0.0556571
ltoes -24.0204 0 0
rfemur -40.5454 -32.4407 18.7208
rtibia 78.9777 -0 0
rfoot -15.5858 -20.0988 0.0116648
rtoes -3.39023 0 0
lowerback 10.3882 4.95193 -6.52208
upperback -2.86435 5.5848 -1.32727
thorax -9.42064 3.00775 1.17977
lowerneck 1.17258 -10.591 -11.7768
upperneck -0.61552 -14.3703 11.5787
head 1.33482 -7.2129 5.01162
lclavicle 0 0 0
lhumerus -70.9393 -24.3962 104.999
lradius 101.984 -0 0
lwrist 55.22 0 0
lhand 7.70324 56.4509 0.0341361
lfingers 0 0 0
lthumb 32.9441 83.4586 0.0310934
rclavicle 0 0 0
rhumerus 27.2845 17.4058 -47.107
rradius 100.683 -0 0
rwrist -30.4279 0 0
rhand -24.9772 -34.8188 0.109495
rfingers 0 0 0
rthumb 1.52897 -64.7505 0.118552
618
root -4.20343 15.7119 -40.2987 -1.3996 -76.2811 8.48431
lfemur -10.3338 13.2612 -16.7817
ltibia 45.0884 -0 0
lfoot -21.6253 29.0484 -0.118829
ltoes -23.8521 0 0
rfemur -40.0262 -32.2581 18.7834
rtibia 78.5473 -0 0
rfoot -15.7355 -20.2632 0.0248944
rtoes -3.62314 0 0
lowerback 10.4763 4.91294 -6.32471
upperback -2.84709 5.56073 -1.24031
thorax -9.44199 2.98651 1.16526
lowerneck 1.11886 -10.4711 -11.6743
upperneck -0.572288 -14.2047 11.4831
head 1.33165 -7.12827 4.97634
lclavicle 0 0 0
lhumerus -69.4861 -24.7716 104.688
lradius 101.68 -0 0
lwrist 54.3546 0 0
lhand 7.56297 55.9485 0.0728772
lfingers 0 0 0
lthumb 32.8098 82.9794 0.0663787
rclavicle 0 0 0
rhumerus 27.2673 17.4989 -47.4075
rradius 100.874 -0 0
rwrist -30.6667 0 0
rhand -24.4347 -34.4103 0.233835
rfingers 0 0 0
rthumb 2.04766 -64.289 0.253187
619
root -4.21452 15.719 -40.2714 -0.547867 -76.6243 7.55171
lfemur -11.3708 13.2288 -16.7891
ltibia 45.6859 -0 0
lfoot -21.3658 28.4776 -0.188145
ltoes -23.661 0 0
rfemur -39.4375 -32.0514 18.8567
rtibia 78.0585 -0 0
rfoot -15.9055 -20.4499 0.0393984
rtoes -3.88765 0 0
lowerback 10.576 4.86828 -6.10064
upperback -2.82753 5.53337 -1.14155
thorax -9.46624 2.96237 1.14879
lowerneck 1.05815 -10.3348 -11.5581
upperneck -0.523573 -14.0164 11.3747
head 1.32798 -7.03216 4.93626
lclavicle 0 0 0
lhumerus -67.8276 -25.1891 104.322
lradius 101.335 -0 0
lwrist 53.3718 0 0
lhand 7.40327 55.3779 0.115381
lfingers 0 0 0
lthumb 32.657 82.4352 0.105088
rclavicle 0 0 0
rhumerus 27.2472 17.6045 -47.749
rradius 101.091 -0 0
rwrist -30.9378 0 0
rhand -23.8176 -33.945 0.370345
rfingers 0 0 0
rthumb 2.63803 -63.7635 0.401011
